<svg width="177" height="178" viewBox="0 0 177 178" fill="none" xmlns="http://www.w3.org/2000/svg">
<path fill-rule="evenodd" clip-rule="evenodd" d="M138 0.123876C145.623 2.21811 151.789 6.53622 156.5 13.0783C163.553 22.5909 170.386 32.2237 177 41.9767C158 42.641 139 43.3053 120 43.9697C119.333 52.2738 118.667 60.5779 118 68.882C113.01 54.7865 103.01 46.6484 88 44.4679C71.3333 44.1358 54.6667 43.8035 38 43.4714C30.8111 40.9805 24.6445 36.8284 19.5 31.0152C13.2385 20.8521 6.7385 10.8871 0 1.12037C45.8303 0.125101 91.83 -0.20707 138 0.123876Z" fill="#020202"/>
<path fill-rule="evenodd" clip-rule="evenodd" d="M80 58.9171C98.63 59.6465 111.464 68.615 118.5 85.8225C118.999 91.4596 119.166 97.1068 119 102.763C117.888 104.855 117.221 107.18 117 109.738C115.333 115.213 113.166 120.527 110.5 125.682C104.991 133.351 99.491 140.991 94 148.602C87.9889 155.609 83.6556 163.581 81 172.518C80.0015 134.82 79.6682 96.9533 80 58.9171Z" fill="#020202"/>
<path fill-rule="evenodd" clip-rule="evenodd" d="M118 133.654C118.996 148.093 119.329 162.709 119 177.5C106.667 177.5 94.333 177.5 82 177.5C83.2138 174.082 84.7138 170.76 86.5 167.535C90.213 163.342 93.713 159.024 97 154.581C104.918 148.683 111.918 141.708 118 133.654Z" fill="#030303"/>
</svg>
