<svg width="770" height="773" viewBox="0 0 770 773" fill="none" xmlns="http://www.w3.org/2000/svg">
<path fill-rule="evenodd" clip-rule="evenodd" d="M600.339 0.538894C633.501 9.6494 660.325 28.4344 680.819 56.8943C711.502 98.2766 741.227 140.182 770 182.61C687.345 185.501 604.689 188.39 522.034 191.28C519.132 227.406 519.902 262.875 517 299C495.292 237.681 448.123 202.934 382.825 193.448C310.32 192.003 237.816 190.558 165.311 189.113C134.037 178.277 107.211 160.214 84.8305 134.925C57.5912 90.7124 29.3144 47.362 0 4.87393C199.375 0.544226 399.486 -0.900814 600.339 0.538894Z" fill="black"/>
<path fill-rule="evenodd" clip-rule="evenodd" d="M348.022 256.306C429.068 259.479 484.9 298.494 515.508 373.352C517.679 397.875 517.683 447.047 517.683 447.047C517.683 447.047 512.758 465.657 508.983 477.392C500.026 505.239 494.128 520.763 480.706 546.753C458.692 589.382 434.402 605.803 408.926 646.459C384.371 685.646 363.925 711.623 352.373 750.5C348.029 586.505 346.579 421.774 348.022 256.306Z" fill="black"/>
<path fill-rule="evenodd" clip-rule="evenodd" d="M513.333 581.433C517.665 644.248 519.114 707.83 517.683 772.175C464.031 772.175 410.374 772.175 356.722 772.175C362.003 757.305 366.976 744.891 376.299 728.824C390.517 704.321 403.312 693.781 421.977 672.469C455.16 634.58 486.874 616.469 513.333 581.433Z" fill="black"/>
</svg>
