<svg width="305" height="232" viewBox="0 0 305 232" fill="none" xmlns="http://www.w3.org/2000/svg">
<g clip-path="url(#clip0_8_50)">
<path d="M23.81 225.75L23.5 229.5L14.25 229.79L5 230.08V226.04C5 222.4 5.25 222 7.5 222H10V97.41L17.75 95.63C32.3 92.29 49.47 83.67 64.31 72.26C67.72 69.65 77.03 61.19 85 53.47C103.52 35.54 110.51 30.75 125.7 25.6C131.24 23.73 132.16 23.01 134.28 19C135.85 16.01 139.31 12.42 144.57 8.29C148.93 4.88 152.89 2.07 153.37 2.04C154.75 1.98 166.16 10.46 169.79 14.25C171.61 16.14 173.42 18.91 173.81 20.4C174.43 22.71 175.69 23.49 182.54 25.8C196.99 30.67 204.69 35.95 222.97 53.5C250.15 79.6 265.75 89.43 289.75 95.58L297 97.44V222H300.06C302.99 222 303.11 222.17 302.81 225.75L302.5 229.5L293.58 229.79C283.9 230.11 283.09 229.71 283.79 224.98C284.13 222.63 284.73 222 286.61 222C288.33 222 289 221.44 289 220.01C289 218.07 288.17 218.02 254.25 217.76L219.5 217.5L218.94 192H256.92L257.5 209.5H263.5V192H289V185.06L263.77 184.5L263.63 163.75C263.56 152.34 263.65 143 263.83 143C264.02 143 267.62 143.87 271.83 144.93C276.05 145.99 281.64 147.17 284.25 147.54L289 148.23V123.24L282.25 121.56C278.54 120.63 271.62 118.33 266.88 116.44C262.13 114.55 257.98 113 257.64 113C257.3 113 256.91 129.09 256.76 148.75L256.5 184.5L226 185.05V155.53C226 139.29 226.27 126 226.6 126C226.92 126 228.44 126.89 229.97 127.98C233.5 130.49 247.03 137 248.72 137C249.7 137 249.99 133.67 249.96 122.75L249.92 108.5L242.77 104.05C238.84 101.6 232.34 96.99 228.33 93.8C224.31 90.61 220.57 88 220.02 88C219.34 88 219 104.36 219 136.52V185.05L201.75 184.77L184.5 184.5L184.24 153.78L183.97 123.06L197.74 122.78L211.5 122.5V92.5C211.5 66.52 211.28 62.1 209.85 59.5C207.59 55.37 205.06 53.26 200.46 51.67C197.31 50.58 196.42 49.7 195.9 47.18C194.88 42.19 192.18 38.97 187.17 36.76C184.6 35.64 181.22 33.65 179.66 32.35C178.11 31.05 174.8 29.48 172.33 28.85C169.82 28.22 167.61 27.01 167.32 26.11C165.63 20.74 164.41 19.06 159.4 15.19L153.84 10.88L148.43 14.96C143.25 18.87 140 23.27 140 26.35C140 27.26 138.17 28.24 135.1 28.98C132.39 29.63 129.19 31.24 127.92 32.59C126.66 33.93 124.01 35.46 122.02 35.99C117.29 37.27 112.22 42.32 111.42 46.57C110.88 49.47 110.02 50.3 105.46 52.39C101.33 54.28 99.66 55.75 98.06 58.88C96.11 62.7 96 64.59 96 92.96V123H123V185.05L105.75 184.77L88.5 184.5L88.24 136.25C88.1 109.71 87.65 88 87.24 88.01C86.83 88.01 83.54 90.37 79.92 93.26C73.09 98.71 68.47 101.96 61.25 106.41L57 109.03V122.85C57 130.45 57.26 136.93 57.58 137.24C58.3 137.97 66.54 134.33 74.85 129.61C78.34 127.62 81.38 126 81.61 126C81.84 126 81.91 139.16 81.77 155.25L81.5 184.5H50.5L50.24 148.65C49.99 115.04 49.87 112.84 48.24 113.55C41.02 116.67 28.52 121.01 23.75 122.06L18 123.32V148.23L23.55 147.54C26.61 147.15 32.23 145.98 36.04 144.92C39.85 143.86 43.21 143 43.51 143C43.8 143 43.92 152.34 43.77 163.75L43.5 184.5L17.88 185.06L18.5 191.5L43.92 192.06L44.21 200.78C44.49 209.34 44.55 209.5 47 209.5C49.45 209.5 49.51 209.34 49.79 200.75L50.08 192H88.06L87.5 217.5L53 217.66C18.82 217.81 18.5 217.83 18.18 219.91C17.91 221.65 18.38 222 20.99 222C24 222 24.11 222.15 23.81 225.75ZM175.81 213.25L175.5 217.5L154.47 217.8C142.9 217.97 133.12 217.78 132.72 217.39C132.32 216.99 132 214.94 132 212.83C132 209.76 132.37 209 133.87 209C134.89 209 136.92 208.06 138.39 206.91C139.34 206.16 140.13 205.56 140.78 204.84C144 201.28 144 194.82 144 153.98V152.05V105H132.25C118.33 105 114.55 106.34 111.64 112.3C109.94 115.79 109.48 116.08 106.14 115.8L102.5 115.5V87.01L153.78 87H205.05L204.78 101.25L204.5 115.5L200.96 115.8C197.68 116.07 197.3 115.8 195.6 111.95C193.01 106.08 189.82 105 175.03 105H163L163.08 151.25C163.13 185.66 163.47 198.4 164.41 201C165.73 204.7 171 209 174.21 209C175.83 209 176.07 209.63 175.81 213.25ZM126.55 67.45C112.77 66.82 112.41 66.85 107.75 69.37L103 71.94V69.42C103 63.48 107.16 59.18 114 58.05C117.4 57.49 117.51 57.33 117.81 52.49C118.03 49.11 118.81 46.77 120.24 45.25C123.11 42.18 124 42.42 124 46.25C124.01 52.96 131.05 59.99 137.76 60C142.19 60 147.87 54.78 148.62 50C149.35 45.45 146.13 41 142.13 41C136.73 41 135.03 46.19 139.75 48.22C141.95 49.17 142.84 49.53 142.91 50.02C142.96 50.34 142.64 50.72 142.11 51.37C142.08 51.4 142.05 51.44 142.02 51.48C140.4 53.43 136.06 53.43 133.26 51.47C130.46 49.51 129.38 43.9 131.04 39.91C132.91 35.39 135.99 33.8 142.19 34.13L147.5 34.41L148.07 30.19C148.68 25.69 151.86 20.5 154.01 20.5C155.9 20.5 159.2 27.45 159.2 31.42V34.83L164.57 34.28C168.65 33.86 170.56 34.14 172.55 35.44C175.74 37.53 178.1 42.83 177.31 46.09C175.8 52.28 169.16 55.04 165.5 51C163.75 49.06 163.75 49 165.72 49C168.4 49 170.23 46.68 169.83 43.81C169.37 40.59 163.95 40.05 161.06 42.94C158.56 45.44 158.3 51.55 160.56 54.78C167.34 64.47 182.78 59.19 183.26 47.02C183.45 42.3 184.22 42.06 187.55 45.65C189.45 47.7 190 49.38 190 53.15V58H193.47C195.9 58 197.96 58.9 200.39 61.04C203.55 63.81 205.99 69.35 204.65 70.69C204.35 70.98 202.01 70.21 199.44 68.97C195.03 66.84 194.01 66.75 180.95 67.4C165.33 68.17 162.06 67.42 156.87 61.86L153.91 58.69L150.2 62.28C144.61 67.72 142.46 68.19 126.55 67.45ZM123.19 217.25C123.02 217.66 116.88 218 109.55 218C98.31 218 96.12 217.75 95.61 216.42C95.27 215.55 95 209.7 95 203.42V192H122.88L123.19 204.25C123.36 210.99 123.36 216.84 123.19 217.25ZM212.06 192L211.5 217.5L198.44 217.78C191.26 217.93 185.08 217.74 184.69 217.36C184.31 216.98 184 211.12 184 204.33V192H212.06Z" fill="#c9a84c"/>
</g>
<defs>
<clipPath id="clip0_8_50">
<rect width="305" height="232" fill="white"/>
</clipPath>
</defs>
</svg>
