<svg width="277" height="244" viewBox="0 0 277 244" fill="none" xmlns="http://www.w3.org/2000/svg">
<path d="M74.2803 152.372C74.5894 152.327 75.4249 152.854 76.1328 153.607L77.4141 154.933L68.6299 163.672C67.1557 165.132 64.6291 167.633 61.4063 170.822C54.0224 178.129 42.9824 189.054 32.5674 199.38C17.5611 214.213 5.29006 226.53 5.29006 226.794C5.29054 227.058 5.68891 227.502 6.21584 227.766C6.92393 228.165 7.36103 228.119 8.11428 227.592C9.47781 226.703 28.2815 208.518 56.9307 180.358L80.1035 157.585L81.7832 159.437C84.3898 162.262 86.9961 167.958 87.2598 171.31L87.4785 174.136L52.8701 208.435C33.8033 227.328 17.6893 242.952 17.0264 243.216H17.0342C15.1358 243.924 13.9831 243.751 11.8662 242.38C9.35006 240.745 1.04844 232.27 0.430683 230.681C-0.187011 229.001 -0.149661 226.62 0.603535 225.204C0.957599 224.541 4.88309 220.436 9.34279 216.066C11.0937 214.333 14.7192 210.76 19.4238 206.123C26.581 199.069 36.235 189.553 45.585 180.312C61.0358 165.042 73.9714 152.462 74.2803 152.372ZM177.969 165.984C180.485 165.984 180.975 166.112 181.193 166.82C181.321 167.302 191.74 177.676 204.275 189.902C209.309 194.812 214.628 199.992 219.509 204.744C226.782 211.826 233.082 217.961 236.013 220.842C240.955 225.61 245.197 229.535 245.415 229.535C246.123 229.534 246.875 227.51 246.477 226.847C246.251 226.493 232.615 212.94 216.192 196.698C199.736 180.467 186.281 167.004 186.263 166.813C186.263 166.587 187.498 166.414 188.952 166.414H191.687L206.738 181.202C248.539 222.212 251.102 224.812 251.411 226.537C251.938 229.709 251.366 230.726 245.452 236.775C242.401 239.909 239.268 242.734 238.477 243.043V243.051C236.578 243.849 235.742 243.849 233.844 242.832C232.254 242.034 163.323 174.164 163.309 173.397C163.309 173.224 164.017 172.252 164.943 171.235C168.04 167.793 172.537 165.984 177.969 165.984ZM68.8487 0.378848C68.8496 -0.328904 73.0363 0.0253054 74.3623 0.86127C75.1157 1.35094 80.8117 6.73765 87.0342 12.915C98.816 24.4783 100.142 26.1584 100.188 29.5107C100.187 32.5088 98.9969 34.0536 88.9326 44.163C83.4663 49.6821 79.0076 54.3129 79.0029 54.581C79.0029 54.7995 88.9775 64.955 101.204 77.1816L123.404 99.3369L125.566 99.2919H127.774L150.284 77.0458L172.748 54.7548L162.774 44.7353C157.298 39.1757 152.491 34.0527 152.092 33.2617C151.211 31.4988 151.165 27.3486 152.001 25.7138C152.709 24.4331 173.456 3.59596 176.281 1.38861C177.69 0.236014 178.398 0.0175202 180.342 0.0175202C181.66 0.01753 182.723 0.198474 182.723 0.416934C182.722 0.636092 181.886 2.27058 180.824 4.07807C177.645 9.4644 174.692 15.0696 174.865 15.288C175.003 15.3764 176.411 14.45 178.044 13.2158L181.042 10.9638L191.86 21.6913C197.782 27.6051 209.872 39.8389 218.701 48.7958L234.725 65.1738L232.299 68.1337C230.974 69.8129 230.002 71.2665 230.137 71.4033C230.265 71.5313 233.753 69.9417 237.858 67.8701C241.961 65.7922 245.44 64.2036 245.58 64.3369C245.708 64.5177 245.844 65.5349 245.844 66.6347V68.624L233.617 80.8954C220.946 93.6039 219.274 94.9296 216.05 94.9296C212.826 94.9296 211.017 93.5593 200.644 83.0126C195.17 77.411 190.449 72.8624 190.181 72.8574C189.872 72.8574 183.694 78.7712 176.454 86.0107L163.256 99.1181L165.373 99.3369C167.452 99.5553 167.489 99.6007 167.625 101.235L167.761 102.87H185.374V154.066H190.226V107.285H276.392L276.083 108.738C274.802 114.735 266.191 124.89 255.336 133.102C237.151 146.918 210.626 158.39 192.968 160.07C191.16 160.251 186.791 160.115 183.039 159.807C177.08 159.279 175.935 159.325 172.801 159.942C165.343 161.487 158.849 166.339 157.35 171.507C155.323 178.43 158.412 185.805 166.842 194.279C173.9 201.338 183.347 207.915 193.766 213.083L199.898 216.081L199.943 226.364V236.602H165.117L157.26 233.995C145.47 230.108 136.995 228.654 125.477 228.654C114.486 228.654 103.276 230.636 93.1211 234.477V234.508L88.043 236.406L69.6397 236.542L51.1904 236.632V216.367L59.2656 212.397C71.447 206.393 78.7772 201.316 85.0449 194.52C92.7665 186.091 95.4187 177.48 93.1211 168.388C89.1058 152.718 72.8634 138.721 49.2012 130.69C40.7263 127.82 33.7048 125.967 20.5518 123.187C14.7215 121.952 9.87056 120.852 9.73439 120.762C8.98106 119.971 12.1151 119.707 26.6846 119.263C35.6946 118.954 56.3511 118.163 72.5928 117.455C88.8773 116.702 102.955 116.129 103.931 116.129C105.166 116.129 105.475 115.993 105.031 115.729C104.677 115.511 83.312 114.984 57.5781 114.585C31.8455 114.186 9.38201 113.794 7.65529 113.658L4.4756 113.394L4.30275 107.835C4.21235 104.739 4.21208 101.567 4.34768 100.813L4.48342 99.3593H88.043L76.126 87.3964C69.5495 80.8199 63.4551 74.8608 62.5283 74.1074L60.8028 72.7372L50.3838 83.1552C39.7472 93.7466 38.1953 94.9374 35.1973 94.9374C32.199 94.8922 30.3455 93.4761 18.6465 81.9579C6.4651 69.995 4.92065 68.013 5.49318 65.3613C5.66632 64.6538 5.93712 64.037 6.11037 64.0361C6.33637 64.0361 9.64435 65.7154 13.4863 67.7871C17.3735 69.8587 20.6429 71.539 20.8613 71.539C21.569 71.5388 21.0787 70.7479 18.6533 67.8329L16.1826 64.8339L29.3809 51.8095C32.5819 48.6284 36.7584 44.4897 41.0889 40.1982C46.5522 34.7841 52.262 29.1261 56.5694 24.8398L70.5205 10.9335L73.127 13.0048C77.4963 16.4023 77.4585 15.8754 72.5996 7.35541C70.528 3.68668 68.8487 0.597315 68.8487 0.378848ZM125.566 196.691C117.89 196.691 116.3 196.826 113.34 197.617C105.927 199.689 97.2718 204.277 91.667 209.091C85.8362 214.085 87.2519 213.641 76.2608 213.641H66.6406L63.5518 215.185C61.8344 216.029 60.4639 216.775 60.4639 216.865L60.4785 216.888C60.4785 216.933 66.7839 216.933 74.4678 216.843L88.5029 216.752L92.4727 212.602C100.021 204.744 107.215 201.302 118.824 199.931C127.254 198.959 137.763 200.059 144.867 202.62C150.163 204.564 153.387 206.77 158.593 211.976L163.361 216.745L176.914 216.654L190.466 216.518L185.163 213.776L174.789 213.423L164.416 213.113L162.382 211.215C156.069 205.339 146.668 199.998 138.811 197.881C134.705 196.781 133.778 196.691 125.566 196.691ZM95.6895 186.279L95.6738 186.271L94.5293 188.924H125.386C142.329 188.924 156.232 188.841 156.242 188.705C156.242 188.615 155.715 187.424 155.052 186.053L153.861 183.628H96.8789L95.6895 186.279ZM97.8067 169.193C97.9423 170.203 98.1147 171.311 98.2051 171.574C98.3413 171.973 100.632 172.147 106.681 172.282H106.673C111.223 172.327 115.374 172.373 115.856 172.282C116.349 172.237 123.851 172.146 132.542 172.146H148.302V167.867L134.75 167.603C127.247 167.43 115.857 167.295 109.325 167.295H97.543L97.8067 169.193ZM167.731 113.802C167.769 117.599 167.686 128.454 167.596 137.9H167.588L167.37 155.024L168.741 154.761C169.494 154.633 170.194 154.369 170.33 154.233C170.466 154.098 170.639 143.377 170.73 130.397L170.865 106.826H167.731V113.802ZM268.813 111.632C268.813 111.104 267.224 111.459 257.559 113.93C238.484 118.781 224.585 120.506 204.983 120.506H194.655V124.611C194.655 126.909 194.783 128.845 194.919 128.98L194.926 128.974C195.054 129.154 196.998 129.199 199.205 129.063C201.458 128.973 206.136 128.8 209.669 128.71C223.395 128.273 237.474 125.53 250.055 120.897C255.132 119.007 268.811 112.251 268.813 111.632ZM175.617 57.9179C175.444 58.0083 165.997 67.2742 154.651 78.5742L134.041 99.1025L135.984 99.3212L135.977 99.329C137.039 99.4646 138.23 99.4646 138.629 99.329C139.026 99.1879 148.161 90.4058 158.931 79.8173L178.532 60.5244L177.207 59.1533C176.499 58.4001 175.791 57.873 175.617 57.9179ZM75.4248 57.8212C75.2892 57.8212 74.7161 58.4462 74.1436 59.2372L73.0821 60.6533L92.6836 79.9833H92.6758L112.277 99.3144H117.619L96.6533 78.5673C85.1461 67.188 75.5786 57.8843 75.4248 57.8212ZM87.3955 37.2997C87.3933 37.1659 85.4055 38.5367 83.0264 40.3437C73.0524 47.892 50.7164 70.2274 46.919 76.4052C45.6383 78.5221 44.5762 80.3381 44.5762 80.5566H44.583C44.5866 81.6528 74.6875 51.9066 82.7627 42.8144C85.324 39.9518 87.3955 37.473 87.3955 37.2997ZM180.258 50.7617C169.666 41.0968 162.517 35.1835 164.897 37.9628C170.193 44.3661 178.804 53.459 190.985 65.6855V65.6777C199.056 73.7031 205.855 80.3216 206.082 80.33C206.301 80.33 205.547 78.7035 204.402 76.7148C201.931 72.3003 190.94 60.4721 180.258 50.7617ZM196.282 12.3945L196.42 12.5322C205.859 21.9268 206.084 22.1505 207.756 22.0605C211.634 21.7969 211.681 21.8417 216.799 26.8242L216.803 26.829C223.553 33.3679 224.216 34.3394 224.216 37.6464V40.3359L233.708 49.873C238.919 55.1214 243.196 59.5345 243.2 59.6738C243.2 59.8094 242.183 60.5175 240.947 61.3085L240.955 61.3007C239.72 62.0541 238.612 62.6718 238.438 62.6718C238.252 62.6587 225.986 50.347 211.115 35.3486C185.028 8.99717 184.101 7.98024 184.455 6.78998C184.628 6.08938 185.208 4.89152 185.69 4.10053L186.526 2.68451L196.282 12.3945ZM55.0244 12.2665C62.1376 5.1534 64.165 2.92314 65.3164 3.30854C65.9379 3.51675 66.3044 4.48734 67.0781 5.86322L68.0498 7.58881L42.5342 33.1494L42.542 33.1562C28.4554 47.2352 16.011 59.5899 14.7744 60.6533L12.5664 62.5517L10.5781 61.3163C9.47074 60.6534 8.58889 59.8544 8.58889 59.5908C8.59233 59.3238 12.8327 54.8655 18.0362 49.6621C27.3471 40.2607 27.4375 40.125 27.1738 38.6259C26.6013 35.6201 27.2195 34.2944 31.1895 30.0156C33.2611 27.8083 36.0404 25.1106 37.3662 24.0107C39.6639 22.2027 39.9279 22.0673 42.4893 22.0673H45.2237L55.0244 12.2665Z" fill="white"/>
</svg>
